/* XPM */
static char * series_xpm[] = {
"32 32 483 2",
"  	c None",
". 	c #545958",
"+ 	c #4D5152",
"@ 	c #515555",
"# 	c #55595A",
"$ 	c #3C4043",
"% 	c #303336",
"& 	c #282B2E",
"* 	c #25282B",
"= 	c #24272A",
"- 	c #232629",
"; 	c #282B2D",
"> 	c #434749",
", 	c #6B7172",
"' 	c #3E4244",
") 	c #36393C",
"! 	c #323537",
"~ 	c #2D3032",
"{ 	c #2E3132",
"] 	c #2D2F31",
"^ 	c #2E3032",
"/ 	c #414446",
"( 	c #64686A",
"_ 	c #3B3E41",
": 	c #3D4041",
"< 	c #444748",
"[ 	c #3C3F40",
"} 	c #373A3B",
"| 	c #2C2E30",
"1 	c #986D6C",
"2 	c #525456",
"3 	c #3F4244",
"4 	c #36393B",
"5 	c #2F3234",
"6 	c #212529",
"7 	c #2A2E32",
"8 	c #292D31",
"9 	c #24282B",
"0 	c #303234",
"a 	c #393C3E",
"b 	c #4C4E50",
"c 	c #665F60",
"d 	c #D16E6E",
"e 	c #AA6666",
"f 	c #333639",
"g 	c #323538",
"h 	c #45494D",
"i 	c #44494C",
"j 	c #2A2D30",
"k 	c #26292C",
"l 	c #2C2F32",
"m 	c #2E3134",
"n 	c #383B3E",
"o 	c #45474A",
"p 	c #CD7978",
"q 	c #D06C6C",
"r 	c #B76A6A",
"s 	c #313437",
"t 	c #2A2D31",
"u 	c #2D3034",
"v 	c #2C2F33",
"w 	c #23272A",
"x 	c #292C30",
"y 	c #2C3033",
"z 	c #303337",
"A 	c #34373B",
"B 	c #35373A",
"C 	c #474447",
"D 	c #C97070",
"E 	c #D06B6B",
"F 	c #D06D6D",
"G 	c #D17171",
"H 	c #C26D6D",
"I 	c #2F3336",
"J 	c #222629",
"K 	c #202326",
"L 	c #1E2224",
"M 	c #17181A",
"N 	c #2D3033",
"O 	c #34373A",
"P 	c #36383C",
"Q 	c #5F4B4E",
"R 	c #A13C3C",
"S 	c #9E5657",
"T 	c #A97577",
"U 	c #A77477",
"V 	c #AF7375",
"W 	c #BD7071",
"X 	c #333436",
"Y 	c #1D2023",
"Z 	c #1F2124",
"` 	c #474A4D",
" .	c #353839",
"..	c #735052",
"+.	c #CD6969",
"@.	c #C86565",
"#.	c #CF6B6B",
"$.	c #736F74",
"%.	c #62666B",
"&.	c #707479",
"*.	c #535457",
"=.	c #524B4E",
"-.	c #595356",
";.	c #65676C",
">.	c #24282A",
",.	c #202325",
"'.	c #474C4F",
").	c #3F3F3F",
"!.	c #151415",
"~.	c #141416",
"{.	c #3E4245",
"].	c #35383B",
"^.	c #793F40",
"/.	c #AE4545",
"(.	c #922F2F",
"_.	c #7C8085",
":.	c #3E4144",
"<.	c #342F31",
"[.	c #373234",
"}.	c #585A5E",
"|.	c #424548",
"1.	c #383A3E",
"2.	c #3C373A",
"3.	c #5B3D3F",
"4.	c #3D383A",
"5.	c #25292B",
"6.	c #171617",
"7.	c #030304",
"8.	c #1C1415",
"9.	c #272525",
"0.	c #292C2E",
"a.	c #2F3335",
"b.	c #8C5050",
"c.	c #B04D4D",
"d.	c #8E2D2D",
"e.	c #7F858A",
"f.	c #35383C",
"g.	c #2B2E30",
"h.	c #4B4F52",
"i.	c #484B4E",
"j.	c #37393C",
"k.	c #2E3234",
"l.	c #2D3133",
"m.	c #2E3031",
"n.	c #222323",
"o.	c #262727",
"p.	c #1B1D1F",
"q.	c #2B2F31",
"r.	c #313537",
"s.	c #945253",
"t.	c #AB4444",
"u.	c #8C2D2D",
"v.	c #959BA1",
"w.	c #8A8F95",
"x.	c #4B4E52",
"y.	c #282A2C",
"z.	c #222425",
"A.	c #44484B",
"B.	c #606468",
"C.	c #2B2D2F",
"D.	c #45484B",
"E.	c #484C4F",
"F.	c #313538",
"G.	c #393D40",
"H.	c #0E1013",
"I.	c #4C5154",
"J.	c #333739",
"K.	c #363A3C",
"L.	c #9C4B4B",
"M.	c #A23333",
"N.	c #842A2A",
"O.	c #868B91",
"P.	c #7B7F84",
"Q.	c #5C6063",
"R.	c #62666A",
"S.	c #6F7478",
"T.	c #3F3F42",
"U.	c #72767B",
"V.	c #3D4143",
"W.	c #373B3D",
"X.	c #343839",
"Y.	c #303435",
"Z.	c #393D3F",
"`.	c #A43E3E",
" +	c #9E3232",
".+	c #7D2828",
"++	c #A5ABB0",
"@+	c #5F6468",
"#+	c #3D4044",
"$+	c #393B3E",
"%+	c #787E83",
"&+	c #8A9197",
"*+	c #696E72",
"=+	c #543F41",
"-+	c #6D6367",
";+	c #672828",
">+	c #7D686B",
",+	c #5C6064",
"'+	c #373A3D",
")+	c #202426",
"!+	c #202324",
"~+	c #212426",
"{+	c #463F41",
"]+	c #774748",
"^+	c #AF3D3D",
"/+	c #993030",
"(+	c #782626",
"_+	c #9A9FA4",
":+	c #52575B",
"<+	c #62686C",
"[+	c #636B71",
"}+	c #616C73",
"|+	c #737E85",
"1+	c #808C92",
"2+	c #9EAAAF",
"3+	c #8D979C",
"4+	c #83888D",
"5+	c #66595D",
"6+	c #6C2D2E",
"7+	c #706B6F",
"8+	c #424649",
"9+	c #1D2226",
"0+	c #181D20",
"a+	c #13181B",
"b+	c #101416",
"c+	c #0E1114",
"d+	c #131618",
"e+	c #191D21",
"f+	c #432E31",
"g+	c #C54A4A",
"h+	c #AE3D3D",
"i+	c #932F2F",
"j+	c #742424",
"k+	c #92979C",
"l+	c #7A8387",
"m+	c #9DA5A9",
"n+	c #848E94",
"o+	c #9FA9AD",
"p+	c #899295",
"q+	c #96A1A4",
"r+	c #ACB9BD",
"s+	c #647078",
"t+	c #A6B2B6",
"u+	c #898D92",
"v+	c #5B5357",
"w+	c #636A70",
"x+	c #475159",
"y+	c #474E54",
"z+	c #353D45",
"A+	c #242B30",
"B+	c #242E37",
"C+	c #3B3C3E",
"D+	c #585459",
"E+	c #544E54",
"F+	c #BB5656",
"G+	c #AB3B3B",
"H+	c #662020",
"I+	c #9DA5AA",
"J+	c #4D555B",
"K+	c #9FA8AC",
"L+	c #BEC7CA",
"M+	c #484B4F",
"N+	c #333539",
"O+	c #858D90",
"P+	c #8A9499",
"Q+	c #6D787E",
"R+	c #A5B5B9",
"S+	c #C0CACD",
"T+	c #76585A",
"U+	c #70585B",
"V+	c #383A3D",
"W+	c #3C3E40",
"X+	c #394044",
"Y+	c #282D31",
"Z+	c #2E353B",
"`+	c #4B4243",
" @	c #534A4C",
".@	c #AF4F4F",
"+@	c #A73A3A",
"@@	c #8D2D2D",
"#@	c #421515",
"$@	c #717B80",
"%@	c #9EA8AD",
"&@	c #787E82",
"*@	c #A6ADAF",
"=@	c #A4ADB1",
"-@	c #757E83",
";@	c #A4B0B4",
">@	c #747C80",
",@	c #4C5055",
"'@	c #77848A",
")@	c #A4B4B8",
"!@	c #B1AFB2",
"~@	c #5D595C",
"{@	c #3F4345",
"]@	c #414547",
"^@	c #45494B",
"/@	c #3A3D3F",
"(@	c #3B3E40",
"_@	c #444849",
":@	c #925858",
"<@	c #855051",
"[@	c #AD3E3E",
"}@	c #1C0909",
"|@	c #79848B",
"1@	c #C2CACC",
"2@	c #4A4E52",
"3@	c #686E73",
"4@	c #ABB5B9",
"5@	c #B8C4C7",
"6@	c #A0ACB1",
"7@	c #A9B3B7",
"8@	c #858E92",
"9@	c #808B91",
"0@	c #9CACB2",
"a@	c #B5C0C4",
"b@	c #53585C",
"c@	c #232628",
"d@	c #26282A",
"e@	c #2E3133",
"f@	c #7D4041",
"g@	c #B04848",
"h@	c #C64B4B",
"i@	c #AC3D3D",
"j@	c #812929",
"k@	c #B2BBBF",
"l@	c #A3ADB2",
"m@	c #BAC1C3",
"n@	c #91999C",
"o@	c #BEC7C9",
"p@	c #9CA2A5",
"q@	c #B5C2C5",
"r@	c #A9B4B8",
"s@	c #9CA9AD",
"t@	c #727C80",
"u@	c #545E65",
"v@	c #96A0A5",
"w@	c #303438",
"x@	c #64686D",
"y@	c #595D61",
"z@	c #1F2223",
"A@	c #111315",
"B@	c #16181A",
"C@	c #333638",
"D@	c #434649",
"E@	c #734E50",
"F@	c #A85052",
"G@	c #A44041",
"H@	c #591C1C",
"I@	c #C4CCCF",
"J@	c #929B9F",
"K@	c #99A3A7",
"L@	c #97A0A4",
"M@	c #A2AAAE",
"N@	c #ABB3B6",
"O@	c #A4AFB4",
"P@	c #8D9BA1",
"Q@	c #ADB7BA",
"R@	c #3B3F43",
"S@	c #3F454A",
"T@	c #89989F",
"U@	c #AEBBBF",
"V@	c #404549",
"W@	c #43474A",
"X@	c #3A3E40",
"Y@	c #272E33",
"Z@	c #1E2225",
"`@	c #22292F",
" #	c #313436",
".#	c #3D4547",
"+#	c #384041",
"@#	c #353B3D",
"##	c #3D4346",
"$#	c #424447",
"%#	c #8B959A",
"&#	c #C5CED0",
"*#	c #5E6368",
"=#	c #5A5E63",
"-#	c #B7C2C5",
";#	c #A8B3B7",
">#	c #B3BFC2",
",#	c #B7C3C6",
"'#	c #3D4145",
")#	c #4C565D",
"!#	c #A1B1B6",
"~#	c #909BA0",
"{#	c #2E3235",
"]#	c #484A4D",
"^#	c #565A5D",
"/#	c #525759",
"(#	c #445A6A",
"_#	c #323B43",
":#	c #3F5568",
"<#	c #21262A",
"[#	c #473C3E",
"}#	c #643D3D",
"|#	c #613C3D",
"1#	c #503A3B",
"2#	c #393F41",
"3#	c #495154",
"4#	c #D2DADC",
"5#	c #A7AEB1",
"6#	c #71777B",
"7#	c #BCC7CA",
"8#	c #464B4E",
"9#	c #363A3E",
"0#	c #A3ADB0",
"a#	c #828D92",
"b#	c #87969D",
"c#	c #A9B7BB",
"d#	c #4B5257",
"e#	c #272B2D",
"f#	c #474E51",
"g#	c #696E73",
"h#	c #534B4D",
"i#	c #403F43",
"j#	c #1D2024",
"k#	c #2B3033",
"l#	c #6E4B4C",
"m#	c #924F50",
"n#	c #BB4949",
"o#	c #752D2D",
"p#	c #343536",
"q#	c #434547",
"r#	c #BAC3C7",
"s#	c #A6B3B8",
"t#	c #D2DBDD",
"u#	c #C9D2D5",
"v#	c #757D81",
"w#	c #43494E",
"x#	c #3A4045",
"y#	c #525B61",
"z#	c #B5C2C6",
"A#	c #8F9EA4",
"B#	c #7F8A8F",
"C#	c #3A3E41",
"D#	c #585E61",
"E#	c #61656A",
"F#	c #27292A",
"G#	c #2B2F32",
"H#	c #1A1E22",
"I#	c #1F2226",
"J#	c #AAB5BA",
"K#	c #A9B6BB",
"L#	c #B6C1C4",
"M#	c #7B888E",
"N#	c #B6C3C7",
"O#	c #B8C5C9",
"P#	c #A4B2B6",
"Q#	c #737D81",
"R#	c #474B4E",
"S#	c #2C2E2F",
"T#	c #1C1C1D",
"U#	c #40474B",
"V#	c #62696B",
"W#	c #505557",
"X#	c #5E6365",
"Y#	c #4F575B",
"Z#	c #3B3F40",
"`#	c #A9B4B9",
" $	c #A0ADB3",
".$	c #9BA8AE",
"+$	c #768287",
"@$	c #3F484B",
"#$	c #262F2F",
"$$	c #353C3D",
"%$	c #4B5357",
"&$	c #565F65",
"*$	c #565C61",
"=$	c #4C5357",
"-$	c #424C4E",
";$	c #404849",
">$	c #445353",
",$	c #3E4546",
"'$	c #383E3F",
")$	c #394446",
"!$	c #3D4749",
"~$	c #3E4749",
"{$	c #3E4648",
"]$	c #3A4345",
"^$	c #384243",
"/$	c #3A4444",
"($	c #3C4243",
"                                                                ",
"                                    . + @                       ",
"                              # $ % & * = - ; >                 ",
"                              , ' ) ! ~ { ] ^ /                 ",
"                              ( _ _ : < [ } | !                 ",
"                          1 2 3 4 5 6 7 8 9 0 a b c             ",
"                    d d d e f g h i j k & l m f n o p d q       ",
"                  d d d d r s t u v w * x y z A B C D d E       ",
"                F G d d d H I 9 J K L M k N s O P Q d d E       ",
"                R S T U V W X - Y Z `  .! a s g f ..+.@.#.      ",
"              $.%.&.*.=.-.;.) >.,.'.).!.~.{.l m ].^./.(.        ",
"          _.:.<.[.}.|.1.2.3.4.& 5.5.6.7.8.9.0.a.f b.c.d.        ",
"        e.a f f.g.h.i.0.^ j.) k.g.l.m.n.o.p.q.r.O s.t.u.        ",
"      v.w.x.s y.z.A.B.0.C.D.E.! F.G.) H.m I.r.J.K.L.M.N.        ",
"      O.E.P.Q.C./ R.S.T.R.U.V.W.X.J.Y.0.l.a.X.) Z.`. +.+        ",
"    ++@+#+$+%+&+*+=+-+;+>+,+` '+J.)+)+!+)+~+~ {+]+^+/+(+        ",
"    _+:+<+[+}+|+1+2+3+4+5+6+7+8+9+0+a+b+c+d+e+f+g+h+i+j+        ",
"    k+l+m+n+o+p+q+r+s+t+u+v+&.w+x+y+z+A+B+C+D+E+F+G+d.H+        ",
"    I+J+K+L+M+N+O+P+Q+R+S+T+U+V+W+> X+Y+Z+W.`+ @.@+@@@#@        ",
"    $@%@&@*@=@-@;@>@,@'@)@!@~@{@]@^@/@]@(@_@:@<@g+[@@@}@        ",
"    |@1@2@3@4@5@6@7@8@9@0@a@b@|.g r.c@p.d@e@f@g@h@i@j@          ",
"  k@l@m@n@4@o@p@q@r@s@t@u@v@w@x@y@l z@A@B@C@D@E@F@G@H@          ",
"  I@J@K@L@M@N@O@P@Q@R@S@T@U@V@{.W@X@Y@Z@`@ #.#+#@###$#          ",
"    %#&#*#=#-#;#>#,#'#)#!#~#{#]#^#/#(#_#:#<#[#}#|#1#2#3#        ",
"    O@4#5#6#7#8#9#0#a#b#c#d#e#f#g#h#i#j#k#l#m#n#n#o#  p#q#      ",
"    r#s#t#u#v#w#x#y#z#A#B#C#D#E#F#  G#H#I#    h@g+      D@      ",
"      J#K#L#M#N#O#r+P#Q#C#R#S#T#U#  V#W#X#            Y#Z#      ",
"          `# $K#.$+$@$#$$$        %$&$          *$=$-$;$        ",
"                    >$,$            '$)$!$~${$]$^$/$            ",
"                    ($                                          ",
"                                                                ",
"                                                                "};
